<svg width="100" height="33" viewBox="0 0 100 33" fill="none" xmlns="http://www.w3.org/2000/svg">
<path d="M15.2323 18.5385H6.09289M15.2323 18.5385L18.4311 28.0001M15.2323 18.5385L13.1759 12.5382M6.09289 18.5385L11.1195 6.53792M6.09289 18.5385L1.98016 28.0001M16.6032 4.23022L11.1195 8.84561" stroke="#44039B" stroke-width="2.53846" stroke-linecap="round" stroke-linejoin="round"/>
<path d="M16.9048 4.49693C16.8054 4.38479 16.7184 4.26189 16.6457 4.13047C16.1056 3.15432 16.44 1.83109 17.3769 1.26709C18.3127 0.704007 19.5789 1.06401 20.12 2.03924C20.2055 2.19339 20.2525 2.31385 20.2955 2.45647C21.9296 2.32909 23.4974 3.13724 24.3717 4.7157L16.743 9.30755C15.8688 7.72908 15.9817 5.90878 16.9048 4.49693Z" fill="#F8F8F8" stroke="#44039B" stroke-width="1.84615" stroke-linejoin="round"/>
<path d="M23.9004 16.6714V20.3223C24.2098 19.9616 24.5103 19.6762 24.8019 19.4658C25.0994 19.2555 25.4266 19.0993 25.7837 18.9971C26.1407 18.8889 26.5245 18.8348 26.935 18.8348C27.5538 18.8348 28.1012 18.967 28.5772 19.2315C29.0592 19.4959 29.437 19.8805 29.7107 20.3853C29.8833 20.6798 29.9993 21.0103 30.0588 21.3769C30.1183 21.7375 30.148 22.1551 30.148 22.6299V27.3445C30.148 27.8373 30.035 28.2099 29.8089 28.4623C29.5887 28.7147 29.2942 28.8408 28.9254 28.8408C28.1221 28.8408 27.7204 28.3421 27.7204 27.3445V23.1889C27.7204 22.4016 27.6044 21.7976 27.3723 21.3769C27.1403 20.9502 26.7 20.7369 26.0514 20.7369C25.617 20.7369 25.2244 20.8631 24.8733 21.1155C24.5281 21.3619 24.2693 21.7014 24.0967 22.1341C23.9658 22.5007 23.9004 23.1528 23.9004 24.0903V27.3445C23.9004 27.8313 23.7904 28.2039 23.5702 28.4623C23.356 28.7147 23.0556 28.8408 22.6687 28.8408C21.8655 28.8408 21.4639 28.3421 21.4639 27.3445V16.6714C21.4639 16.1726 21.568 15.8 21.7762 15.5536C21.9904 15.3012 22.2879 15.175 22.6687 15.175C23.0556 15.175 23.356 15.3012 23.5702 15.5536C23.7904 15.806 23.9004 16.1786 23.9004 16.6714ZM38.7252 27.4527C38.136 27.9155 37.5649 28.264 37.0115 28.4984C36.4641 28.7268 35.8482 28.8408 35.164 28.8408C34.5392 28.8408 33.9888 28.7177 33.5129 28.4713C33.0428 28.2189 32.6798 27.8794 32.424 27.4527C32.1681 27.026 32.0402 26.5632 32.0402 26.0644C32.0402 25.3913 32.2514 24.8174 32.6739 24.3426C33.0963 23.8679 33.6764 23.5494 34.4143 23.3871C34.569 23.3511 34.9528 23.2699 35.5656 23.1437C36.1785 23.0175 36.7021 22.9034 37.1364 22.8013C37.5767 22.6931 38.0528 22.5639 38.5645 22.4137C38.5348 21.7646 38.4039 21.2898 38.1718 20.9893C37.9457 20.6828 37.4727 20.5295 36.7527 20.5295C36.1339 20.5295 35.6667 20.6167 35.3514 20.791C35.042 20.9652 34.7743 21.2267 34.5481 21.5752C34.328 21.9238 34.1703 22.1551 34.0752 22.2693C33.9858 22.3775 33.7895 22.4317 33.486 22.4317C33.2124 22.4317 32.9744 22.3444 32.7721 22.1702C32.5757 21.9899 32.4775 21.7615 32.4775 21.4851C32.4775 21.0524 32.6292 20.6317 32.9327 20.2231C33.2361 19.8144 33.7092 19.4779 34.3518 19.2134C34.9945 18.949 35.7948 18.8168 36.7527 18.8168C37.8237 18.8168 38.6656 18.946 39.2785 19.2044C39.8914 19.4568 40.3228 19.8595 40.5727 20.4124C40.8285 20.9652 40.9564 21.6984 40.9564 22.6119C40.9564 23.1888 40.9535 23.6786 40.9475 24.0812C40.9475 24.4839 40.9446 24.9317 40.9386 25.4245C40.9386 25.8872 41.013 26.3709 41.1617 26.8758C41.3164 27.3746 41.3938 27.6961 41.3938 27.8403C41.3938 28.0927 41.2748 28.3241 41.0367 28.5344C40.8047 28.7388 40.5399 28.8408 40.2424 28.8408C39.9925 28.8408 39.7456 28.7238 39.5016 28.4893C39.2576 28.2489 38.9988 27.9034 38.7252 27.4527ZM38.5645 23.8919C38.2075 24.0241 37.6868 24.1654 37.0026 24.3156C36.3243 24.4598 35.8542 24.5681 35.5924 24.6402C35.3306 24.7063 35.0807 24.8414 34.8427 25.0458C34.6047 25.2441 34.4857 25.5235 34.4857 25.8841C34.4857 26.2567 34.6256 26.5752 34.9052 26.8396C35.1849 27.0981 35.5508 27.2274 36.003 27.2274C36.485 27.2274 36.9282 27.1222 37.3328 26.9119C37.7434 26.6955 38.0439 26.419 38.2343 26.0824C38.4545 25.7098 38.5645 25.0968 38.5645 24.2435V23.8919ZM45.8742 20.2321V27.3445C45.8742 27.8373 45.7582 28.2099 45.5261 28.4623C45.2941 28.7147 44.9995 28.8408 44.6425 28.8408C44.2856 28.8408 43.994 28.7116 43.7678 28.4532C43.5477 28.1948 43.4376 27.8253 43.4376 27.3445V20.3042C43.4376 19.8174 43.5477 19.4508 43.7678 19.2044C43.994 18.958 44.2856 18.8348 44.6425 18.8348C44.9995 18.8348 45.2941 18.958 45.5261 19.2044C45.7582 19.4508 45.8742 19.7934 45.8742 20.2321ZM44.6693 17.69C44.3301 17.69 44.0386 17.5848 43.7947 17.3745C43.5566 17.1642 43.4376 16.8667 43.4376 16.4821C43.4376 16.1335 43.5596 15.8481 43.8036 15.6257C44.0535 15.3973 44.3421 15.2831 44.6693 15.2831C44.9847 15.2831 45.2644 15.3853 45.5082 15.5896C45.7522 15.794 45.8742 16.0914 45.8742 16.4821C45.8742 16.8607 45.7552 17.1581 45.5172 17.3745C45.2792 17.5848 44.9965 17.69 44.6693 17.69ZM51.1668 16.7976V26.4161H56.5398C56.9682 26.4161 57.2955 26.5212 57.5216 26.7316C57.7536 26.9419 57.8696 27.2063 57.8696 27.5248C57.8696 27.8494 57.7565 28.1138 57.5305 28.3181C57.3044 28.5164 56.9742 28.6155 56.5398 28.6155H50.1404C49.5633 28.6155 49.1467 28.4863 48.8909 28.2279C48.641 27.9694 48.516 27.5518 48.516 26.9749V16.7976C48.516 16.2567 48.6351 15.8511 48.8731 15.5806C49.117 15.3102 49.4354 15.175 49.828 15.175C50.2267 15.175 50.548 15.3102 50.792 15.5806C51.0419 15.845 51.1668 16.2507 51.1668 16.7976ZM66.2504 24.4418H61.4844C61.4903 25.0007 61.6004 25.4936 61.8146 25.9203C62.0348 26.3469 62.3233 26.6685 62.6803 26.8848C63.0433 27.1012 63.4419 27.2092 63.8762 27.2092C64.1678 27.2092 64.4326 27.1762 64.6706 27.1101C64.9146 27.038 65.1496 26.9299 65.3758 26.7857C65.6018 26.6354 65.8101 26.4762 66.0005 26.3079C66.1909 26.1396 66.4378 25.9112 66.7413 25.6227C66.8662 25.5145 67.0447 25.4604 67.2767 25.4604C67.5266 25.4604 67.729 25.5296 67.8837 25.6679C68.0384 25.8061 68.1157 26.0014 68.1157 26.2538C68.1157 26.4762 68.0294 26.7376 67.8569 27.0381C67.6844 27.3325 67.4226 27.618 67.0715 27.8944C66.7263 28.1649 66.289 28.3902 65.7595 28.5705C65.2358 28.7508 64.632 28.8408 63.9476 28.8408C62.3828 28.8408 61.1659 28.3902 60.2972 27.4888C59.4285 26.5873 58.9942 25.3643 58.9942 23.8198C58.9942 23.0926 59.1013 22.4196 59.3156 21.8006C59.5297 21.1756 59.8421 20.6407 60.2527 20.196C60.6632 19.7513 61.169 19.4118 61.7699 19.1774C62.3709 18.937 63.0373 18.8168 63.7692 18.8168C64.7212 18.8168 65.5363 19.0211 66.2147 19.4298C66.8989 19.8324 67.4106 20.3553 67.7498 20.9983C68.0889 21.6413 68.2585 22.2964 68.2585 22.9634C68.2585 23.5824 68.083 23.9851 67.732 24.1714C67.3809 24.3517 66.887 24.4418 66.2504 24.4418ZM61.4844 23.0446H65.9023C65.8428 22.2032 65.6166 21.5753 65.224 21.1607C64.8372 20.7399 64.3256 20.5295 63.6888 20.5295C63.0819 20.5295 62.5821 20.7429 62.1894 21.1696C61.8027 21.5902 61.5676 22.2152 61.4844 23.0446ZM76.4786 27.4527C75.8895 27.9155 75.3183 28.264 74.765 28.4984C74.2175 28.7268 73.6017 28.8408 72.9174 28.8408C72.2927 28.8408 71.7423 28.7177 71.2663 28.4713C70.7962 28.2189 70.4333 27.8794 70.1774 27.4527C69.9216 27.026 69.7937 26.5632 69.7937 26.0644C69.7937 25.3913 70.0049 24.8174 70.4273 24.3426C70.8498 23.8679 71.4299 23.5494 72.1677 23.3871C72.3225 23.3511 72.7062 23.2699 73.3191 23.1437C73.932 23.0175 74.4556 22.9034 74.8899 22.8013C75.3302 22.6931 75.8062 22.5639 76.3179 22.4137C76.2882 21.7646 76.1573 21.2898 75.9253 20.9893C75.6991 20.6828 75.2261 20.5295 74.5061 20.5295C73.8873 20.5295 73.4202 20.6167 73.1049 20.791C72.7955 20.9652 72.5277 21.2267 72.3016 21.5752C72.0815 21.9238 71.9238 22.1551 71.8286 22.2693C71.7393 22.3775 71.543 22.4317 71.2395 22.4317C70.9658 22.4317 70.7278 22.3444 70.5256 22.1702C70.3292 21.9899 70.231 21.7615 70.231 21.4851C70.231 21.0524 70.3827 20.6317 70.6861 20.2231C70.9896 19.8144 71.4627 19.4779 72.1053 19.2134C72.7479 18.949 73.5482 18.8168 74.5061 18.8168C75.5771 18.8168 76.4191 18.946 77.032 19.2044C77.6449 19.4568 78.0762 19.8595 78.3261 20.4124C78.582 20.9652 78.7099 21.6984 78.7099 22.6119C78.7099 23.1888 78.7069 23.6786 78.701 24.0812C78.701 24.4839 78.698 24.9317 78.6921 25.4245C78.6921 25.8872 78.7664 26.3709 78.9152 26.8758C79.0699 27.3746 79.1472 27.6961 79.1472 27.8403C79.1472 28.0927 79.0282 28.3241 78.7902 28.5344C78.5582 28.7388 78.2934 28.8408 77.9959 28.8408C77.746 28.8408 77.499 28.7238 77.2551 28.4893C77.0112 28.2489 76.7523 27.9034 76.4786 27.4527ZM76.3179 23.8919C75.961 24.0241 75.4403 24.1654 74.756 24.3156C74.0777 24.4598 73.6077 24.5681 73.3459 24.6402C73.0841 24.7063 72.8342 24.8414 72.5961 25.0458C72.3581 25.2441 72.2391 25.5235 72.2391 25.8841C72.2391 26.2567 72.379 26.5752 72.6586 26.8396C72.9383 27.0981 73.3043 27.2274 73.7564 27.2274C74.2384 27.2274 74.6817 27.1222 75.0862 26.9119C75.4968 26.6955 75.7973 26.419 75.9877 26.0824C76.2079 25.7098 76.3179 25.0968 76.3179 24.2435V23.8919ZM83.6098 25.2892V27.3445C83.6098 27.8433 83.4938 28.2189 83.2618 28.4713C83.0297 28.7177 82.7352 28.8408 82.3781 28.8408C82.0271 28.8408 81.7385 28.7147 81.5124 28.4623C81.2863 28.2099 81.1733 27.8373 81.1733 27.3445V20.4935C81.1733 19.3877 81.5689 18.8348 82.3603 18.8348C82.7649 18.8348 83.0564 18.964 83.235 19.2225C83.4135 19.4809 83.5117 19.8625 83.5295 20.3673C83.8211 19.8625 84.1185 19.4809 84.422 19.2225C84.7314 18.964 85.142 18.8348 85.6537 18.8348C86.1654 18.8348 86.6622 18.964 87.1442 19.2225C87.6261 19.4809 87.8671 19.8234 87.8671 20.2501C87.8671 20.5506 87.763 20.8 87.5548 20.9983C87.3525 21.1906 87.1323 21.2868 86.8943 21.2868C86.8051 21.2868 86.5878 21.2327 86.2428 21.1245C85.9036 21.0103 85.6031 20.9532 85.3413 20.9532C84.9843 20.9532 84.6928 21.0494 84.4666 21.2417C84.2405 21.428 84.065 21.7074 83.94 22.08C83.8151 22.4526 83.7288 22.8973 83.6812 23.4142C83.6337 23.925 83.6098 24.55 83.6098 25.2892ZM91.4193 20.196V20.4935C91.8477 19.9226 92.3149 19.5049 92.8206 19.2405C93.3323 18.97 93.9184 18.8348 94.5788 18.8348C95.2215 18.8348 95.7956 18.9761 96.3014 19.2585C96.8071 19.541 97.1851 19.9406 97.435 20.4574C97.5956 20.7579 97.6997 21.0824 97.7473 21.431C97.7949 21.7795 97.8187 22.2243 97.8187 22.7652V27.3445C97.8187 27.8373 97.7057 28.2099 97.4795 28.4623C97.2594 28.7147 96.9708 28.8408 96.6138 28.8408C96.2508 28.8408 95.9563 28.7116 95.7302 28.4532C95.5041 28.1948 95.3911 27.8253 95.3911 27.3445V23.243C95.3911 22.4317 95.278 21.8126 95.0519 21.3859C94.8318 20.9532 94.3884 20.7369 93.7221 20.7369C93.2877 20.7369 92.892 20.8691 92.535 21.1335C92.178 21.3919 91.9161 21.7495 91.7496 22.2062C91.6306 22.5728 91.5711 23.2579 91.5711 24.2615V27.3445C91.5711 27.8433 91.4551 28.2189 91.223 28.4713C90.9969 28.7177 90.7024 28.8408 90.3394 28.8408C89.9883 28.8408 89.6998 28.7116 89.4737 28.4532C89.2475 28.1948 89.1345 27.8253 89.1345 27.3445V20.2321C89.1345 19.7633 89.2357 19.4148 89.4379 19.1864C89.6403 18.952 89.9169 18.8348 90.268 18.8348C90.4822 18.8348 90.6756 18.8859 90.8481 18.9881C91.0207 19.0902 91.1575 19.2435 91.2587 19.4478C91.3659 19.6521 91.4193 19.9015 91.4193 20.196Z" fill="#44039B"/>
</svg>
